# xmcd
#
# Track frame offsets:
# 150
# 14482
# 29202
# 45135
# 61495
# 74480
# 89465
# 109557
# 125772
# 136207
# 147735
# 167815
#
# Disc length: 2403 seconds
#
#
# Revision: 0
# Processed by: cddbd v1.4PL0 Copyright (c) Steve Scherf et al.
# Submitted via: FreeRIP 2.51 
#
DISCID=b409610c
DTITLE=Lisa Hewitt - Lisa Hewitt
DYEAR=1999
DGENRE=Country
TTITLE0=Lisa Hewitt - I Just Wanna Hold You
TTITLE1=Lisa Hewitt - Midnight In The Garden Of Love
TTITLE2=Lisa Hewitt - Settle For Love
TTITLE3=Lisa Hewitt -Someday, Someone
TTITLE4=Lisa Hewitt - 13 MWZ
TTITLE5=Lisa Hewitt - Johnny Walker Walk
TTITLE6=Lisa Hewitt - One Ride In Vegas
TTITLE7=Lisa Hewitt - Slide Over I'm Drinking
TTITLE8=Lisa Hewitt - Too Bad
TTITLE9=Lisa Hewitt - Take It All Out On You
TTITLE10=Lisa Hewitt - You Can't Get There From Here
TTITLE11=Lisa Hewitt - Hit Me With You Best Shot
EXTD=
EXTT0=
EXTT1=
EXTT2=
EXTT3=
EXTT4=
EXTT5=
EXTT6=
EXTT7=
EXTT8=
EXTT9=
EXTT10=
EXTT11=
PLAYORDER=
